<svg xmlns="http://www.w3.org/2000/svg" viewBox="0 0 14.65 19.47"><defs><style>.cls-1,.cls-3{fill:#fff;stroke:#707071;stroke-miterlimit:10;}.cls-1{stroke-width:0.75px;}.cls-2{fill:#707071;}.cls-3{stroke-width:0.25px;}</style></defs><g id="Layer_2" data-name="Layer 2"><path class="cls-1" d="M1.44,5h9.62a0,0,0,0,1,0,0v9.34a.86.86,0,0,1-.86.86H2.29a.86.86,0,0,1-.86-.86V5A0,0,0,0,1,1.44,5Z"/><path class="cls-1" d="M.89,2.19H11.6a.52.52,0,0,1,.52.52V4.77a.17.17,0,0,1-.17.17H.54a.17.17,0,0,1-.17-.17V2.7a.52.52,0,0,1,.52-.52Z"/><path class="cls-1" d="M3.69.38H8.91a.55.55,0,0,1,.55.55V2.19a0,0,0,0,1,0,0H3.29a0,0,0,0,1,0,0V.78a.4.4,0,0,1,.4-.4Z"/><rect class="cls-2" x="3.53" y="6.98" width="0.94" height="5.95" rx="0.47"/><rect class="cls-2" x="5.84" y="6.98" width="0.94" height="5.95" rx="0.47"/><rect class="cls-2" x="8.05" y="6.98" width="0.94" height="5.95" rx="0.47"/></g><g id="Layer_5" data-name="Layer 5"><path class="cls-3" d="M125.85,125.27s.34-.23.17-1.2a1.88,1.88,0,0,0-.62-1.1c-.32-.27-.74-.46-1.09,0a.88.88,0,0,0,.5,1.29,1.21,1.21,0,0,1,.87.69S125.67,125.35,125.85,125.27Z" transform="translate(-113.47 -106.07)"/><path class="cls-3" d="M126.78,121.71a.36.36,0,0,1,.07.17,2.05,2.05,0,0,1-.43,1.76s-.21.22-.27-.11a.81.81,0,0,0-.34-.57.89.89,0,0,0-.81-.16.26.26,0,0,1-.21,0,.13.13,0,0,1,0-.18.25.25,0,0,1,.16-.12,8.61,8.61,0,0,0,1.07-.28.84.84,0,0,0,.3-.22l.07-.09S126.58,121.43,126.78,121.71Z" transform="translate(-113.47 -106.07)"/><path class="cls-3" d="M126,121.07s.22.08.32.67a.37.37,0,0,1-.1.33.47.47,0,0,1-.29.14l-.94.25s-.13,0-.08-.17a.21.21,0,0,1,.13-.16,2.06,2.06,0,0,0,.58-.51,1,1,0,0,0,.08-.42A.2.2,0,0,1,126,121.07Z" transform="translate(-113.47 -106.07)"/><path class="cls-3" d="M126.75,123.36s.27-.21.3.64a1.14,1.14,0,0,0,.09.7s.1.42-.16.29c0,0-.09,0,0,.07a.16.16,0,0,1,0,.25s-.13.16-.44-.06a.52.52,0,0,0-.34.09s-.25.21-.26,0c0,0,.36-.24.08-1.5a1.51,1.51,0,0,0-1.08-1s0,0,0,0a1,1,0,0,1,1.27.62s.13.54.3.45C126.48,123.82,126.62,123.83,126.75,123.36Z" transform="translate(-113.47 -106.07)"/><path class="cls-3" d="M126.85,121.86s.33,0,.44.23c0,0,.11.19-.08.22l-.28.07S126.73,121.84,126.85,121.86Z" transform="translate(-113.47 -106.07)"/><path class="cls-3" d="M127.54,122.55a.08.08,0,0,1,0,.09.73.73,0,0,0-.41.56s0,.2-.22.18a.16.16,0,0,1-.15-.24,7.11,7.11,0,0,0,.14-.7c0-.13.54,0,.64,0A.07.07,0,0,1,127.54,122.55Z" transform="translate(-113.47 -106.07)"/><path class="cls-3" d="M127.14,123.23a.52.52,0,0,1,.6-.4l.08,0c.07,0,.17.13.17.38a1.61,1.61,0,0,1-.41,1.27.24.24,0,0,1-.29.07c-.14-.08-.29-.29-.24-.88,0,0-.08-.76.55-.46,0,0,.24.07.23.52,0,0-.14.45-.4.37a.29.29,0,0,1-.17-.22c0-.13,0-.31.19-.34s.35.08.44.29a.61.61,0,0,1-.16.76.75.75,0,0,1-.36.16s-.28,0-.35-.41" transform="translate(-113.47 -106.07)"/><path class="cls-3" d="M124.26,123.24a14.73,14.73,0,0,0-8.45.86" transform="translate(-113.47 -106.07)"/></g></svg>